<?xml version="1.0" encoding="UTF-8"?>
<svg id="Layer_1" data-name="Layer 1" xmlns="http://www.w3.org/2000/svg" viewBox="0 0 226.23 186.77">
  <defs>
    <style>
      .cls-1 {
        fill: #2b3251;
      }
    </style>
  </defs>
  <path class="cls-1" d="M223.23,2.37c3.27,3.04,4.11,9.22,1.29,12.82-55.98,46.77-103.68,102.26-138.06,166.88-3.72,4.59-9.6,6.02-14.94,3.38-20.25-19.14-40.95-38.11-60.81-57.72-6.78-6.7-15.41-12.83-7.65-23.01,6.55-8.59,15.79-16.7,22.76-25.12,5.04-3.72,11.09-3.05,15.6,1.15,9.24,8.61,17.98,20.91,26.93,30.24,0,0,0,0,.01.01,1.14,1.2,3.07,1.08,4.04-.26,4.51-6.2,9.5-12.14,14.54-17.9C117.74,57.69,161.38,19.76,205.6,3.25c5.5-2.05,12.48-5.66,17.63-.88Z"/>
</svg>