<?xml version="1.0" encoding="UTF-8"?>
<svg id="Layer_1" data-name="Layer 1" xmlns="http://www.w3.org/2000/svg" viewBox="0 0 123 23.43">
  <defs>
    <style>
      .cls-1 {
        fill: #2b3251;
      }
    </style>
  </defs>
  <g>
    <path class="cls-1" d="M7.2,5c.7.4,1.2,1,1.6,1.7.4.7.6,1.5.6,2.4s-.2,1.7-.6,2.4-.9,1.3-1.6,1.7-1.5.6-2.4.6-1.9-.4-2.6-1.2v4.5H0V4.6h2.2v.9c.7-.8,1.5-1.2,2.6-1.2s1.7.2,2.4.6c0,0,0,.1,0,.1ZM6.5,11c.4-.5.7-1.1.7-1.9s-.2-1.4-.7-1.9-1-.8-1.7-.8-1.3.3-1.8.8c-.5.5-.7,1.2-.7,1.9s.2,1.4.7,1.9,1.1.7,1.8.7,1.3-.3,1.7-.8h0v.1Z"/>
    <path class="cls-1" d="M12.9,11.5s.2.1.4.1h.6v2.1c-.4,0-.9.1-1.2.1-.7,0-1.2-.2-1.6-.6s-.6-1-.6-1.9V1h2.2v10.1c0,.2,0,.3.1.4h.1Z"/>
    <path class="cls-1" d="M21.8,4.6h2.2v9h-2.2v-.9c-.7.8-1.5,1.2-2.6,1.2s-1.7-.2-2.4-.6-1.2-1-1.6-1.7c-.4-.7-.6-1.5-.6-2.4s.2-1.7.6-2.4c.4-.7.9-1.3,1.6-1.7s1.5-.6,2.4-.6,1.9.4,2.6,1.2v-.9h0s0-.2,0-.2ZM21.1,11c.5-.5.7-1.1.7-1.9s-.2-1.4-.7-1.9-1.1-.7-1.8-.7-1.3.3-1.7.8c-.4.5-.7,1.1-.7,1.9s.2,1.4.7,1.9c.4.5,1,.8,1.7.8s1.3-.2,1.8-.8h0v-.1Z"/>
    <path class="cls-1" d="M31.9,4.7c.5.2,1,.6,1.4,1.2.4.6.6,1.3.6,2.3v5.4h-2.2v-5.4c0-.7-.2-1.2-.6-1.4-.4-.3-.8-.4-1.3-.4s-.9.2-1.3.5-.5.9-.5,1.7v5h-2.2V4.6h2.2v.8c.3-.3.7-.5,1.1-.7s.8-.3,1.3-.3,1.1.1,1.6.3c0,0-.1,0-.1,0Z"/>
    <path class="cls-1" d="M37.4,13.2c-.7-.4-1.3-1-1.7-1.7s-.6-1.5-.6-2.4.2-1.6.6-2.4c.4-.7,1-1.3,1.7-1.7s1.5-.6,2.4-.6,1.6.2,2.4.6,1.3,1,1.7,1.7.6,1.5.6,2.4-.2,1.6-.6,2.4-1,1.3-1.7,1.7-1.5.6-2.4.6-1.7-.2-2.4-.6ZM41,11.3c.4-.2.7-.5.9-.9s.3-.8.3-1.3-.1-.9-.3-1.3-.5-.7-.9-.9c-.4-.2-.8-.3-1.3-.3s-.9.1-1.3.3c-.4.2-.7.5-.9.9-.2.4-.3.8-.3,1.3s.1.9.3,1.3.5.7.9.9.8.3,1.3.3.9-.1,1.3-.3Z"/>
    <path class="cls-1" d="M53,4.6h2.2v8.6c0,.9-.2,1.6-.6,2.2-.4.6-1,1.1-1.8,1.5s-1.6.5-2.5.5-2-.2-2.8-.6-1.4-.9-1.8-1.6l1.9-1.1c.2.4.5.6,1,.9s1.1.4,1.8.4,1.4-.2,1.9-.6.8-.9.8-1.6v-.5c-.7.8-1.5,1.2-2.6,1.2s-1.7-.2-2.4-.6c-.7-.4-1.2-1-1.6-1.7-.4-.7-.6-1.5-.6-2.4s.2-1.7.6-2.4c.4-.7.9-1.3,1.6-1.7s1.5-.6,2.4-.6,1.9.4,2.6,1.2v-1s-.1-.1-.1-.1ZM52.3,11c.5-.5.7-1.1.7-1.9s-.2-1.4-.7-1.9-1.1-.7-1.8-.7-1.3.3-1.7.8c-.4.5-.7,1.1-.7,1.9s.2,1.4.7,1.9c.4.5,1,.8,1.7.8s1.3-.2,1.8-.8h0v-.1Z"/>
    <path class="cls-1" d="M59,13.2c-.7-.4-1.3-1-1.7-1.7s-.6-1.5-.6-2.4.2-1.6.6-2.4c.4-.7,1-1.3,1.7-1.7s1.5-.6,2.4-.6,1.6.2,2.4.6,1.3,1,1.7,1.7c.4.7.6,1.5.6,2.4s-.2,1.6-.6,2.4-1,1.3-1.7,1.7-1.5.6-2.4.6-1.7-.2-2.4-.6ZM62.7,11.3c.4-.2.7-.5.9-.9s.3-.8.3-1.3-.1-.9-.3-1.3-.5-.7-.9-.9c-.4-.2-.8-.3-1.3-.3s-.9.1-1.3.3c-.4.2-.7.5-.9.9-.2.4-.3.8-.3,1.3s.1.9.3,1.3.5.7.9.9.8.3,1.3.3.9-.1,1.3-.3Z"/>
    <path class="cls-1" d="M69.7,11.5s.2.1.4.1h.6v2.1c-.4,0-.9.1-1.2.1-.7,0-1.2-.2-1.6-.6s-.6-1-.6-1.9V1h2.2v10.1c0,.2,0,.3.1.4h.1Z"/>
    <path class="cls-1" d="M78.2,4.7c.5.2,1,.6,1.4,1.2s.6,1.3.6,2.3v5.4h-2.2v-5.4c0-.7-.2-1.2-.6-1.4-.4-.3-.8-.4-1.3-.4s-.9.2-1.3.5-.5.9-.5,1.7v5h-2.2V4.6h2.2v.8c.3-.3.7-.5,1.1-.7s.8-.3,1.3-.3,1.1.1,1.6.3h-.1Z"/>
    <path class="cls-1" d="M87.7,4.6h2.3l-3.2,9c-.5,1.2-1.1,2.2-1.9,2.8s-1.8.9-2.9.8v-2.2h.3c1,0,1.7-.6,2.2-1.8l-4-8.7h2.4l2.7,5.7,2-5.7h0s.1.1.1.1Z"/>
    <path class="cls-1" d="M90.6,11.7c.2-.2.5-.3.9-.3s.7.1.9.3.3.5.3.9,0,.7-.3.9c-.2.2-.5.3-.9.3s-.7-.1-.9-.3c-.2-.2-.3-.5-.3-.9s0-.7.3-.9Z"/>
    <path class="cls-1" d="M94.3,2.2c-.2-.2-.3-.5-.3-.9s.1-.6.3-.9c.2-.2.5-.4.8-.4s.6.1.8.4c.2.2.3.5.3.9s-.1.6-.3.9c-.2.2-.5.3-.8.3s-.6-.1-.8-.3ZM94,13.6V4.6h2.2v9h-2.2Z"/>
    <path class="cls-1" d="M104.3,4.7c.5.2,1,.6,1.4,1.2s.6,1.3.6,2.3v5.4h-2.2v-5.4c0-.7-.2-1.2-.6-1.4-.4-.3-.8-.4-1.3-.4s-.9.2-1.3.5-.5.9-.5,1.7v5h-2.2V4.6h2.2v.8c.3-.3.7-.5,1.1-.7s.8-.3,1.3-.3,1.1.1,1.6.3h-.1Z"/>
    <path class="cls-1" d="M112.9,2.9h-.8c-.4,0-.7,0-.9.2-.2.2-.3.4-.3.9v.7h2v2h-2v7h-2.2v-7h-1.5v-2h1.5v-.8c0-1.1.2-1.9.7-2.4.5-.4,1.2-.7,2.1-.7h1.4v2h0s0,.1,0,.1Z"/>
    <path class="cls-1" d="M115.9,13.2c-.7-.4-1.3-1-1.7-1.7-.4-.7-.6-1.5-.6-2.4s.2-1.6.6-2.4c.4-.7,1-1.3,1.7-1.7s1.5-.6,2.4-.6,1.6.2,2.4.6,1.3,1,1.7,1.7c.4.7.6,1.5.6,2.4s-.2,1.6-.6,2.4-1,1.3-1.7,1.7-1.5.6-2.4.6-1.7-.2-2.4-.6ZM119.5,11.3c.4-.2.7-.5.9-.9.2-.4.3-.8.3-1.3s-.1-.9-.3-1.3c-.2-.4-.5-.7-.9-.9-.4-.2-.8-.3-1.3-.3s-.9.1-1.3.3c-.4.2-.7.5-.9.9-.2.4-.3.8-.3,1.3s.1.9.3,1.3.5.7.9.9.8.3,1.3.3.9-.1,1.3-.3Z"/>
  </g>
  <g>
    <path class="cls-1" d="M0,19.65h1.58c.33,0,.58.08.75.25s.25.39.25.69c0,.42-.17.7-.52.83l.61,1.21h-.68l-.53-1.11h-.83v1.11H0s0-2.98,0-2.98ZM1.53,21c.14,0,.24-.04.31-.11.07-.07.11-.17.11-.3s-.04-.23-.11-.3-.18-.1-.31-.1h-.9v.81h.9Z"/>
    <path class="cls-1" d="M4.02,19.65h.79l1.17,2.98h-.69l-.21-.57h-1.36l-.21.57h-.65l1.17-2.98h0ZM4.88,21.54l-.28-.76c-.02-.06-.06-.16-.1-.3s-.07-.24-.09-.28h-.02s-.04.14-.09.28c-.04.14-.08.24-.1.3l-.28.76h.96Z"/>
    <path class="cls-1" d="M6.28,19.65h1.42c.33,0,.58.08.75.25s.25.41.25.72-.09.55-.26.72-.44.26-.78.26h-.75v1.03h-.63s0-2.98,0-2.98ZM7.64,21.08c.14,0,.24-.04.31-.12.07-.08.11-.19.11-.33s-.04-.25-.11-.32c-.07-.08-.18-.11-.31-.11h-.73v.89h.73Z"/>
    <path class="cls-1" d="M9.46,22.3c-.26-.26-.4-.64-.4-1.16s.13-.9.4-1.16c.26-.26.63-.38,1.11-.38s.85.13,1.12.38.4.64.4,1.16-.13.9-.4,1.16-.64.38-1.12.38-.85-.13-1.11-.38ZM11.22,21.91c.15-.16.22-.4.22-.7v-.13c0-.3-.07-.53-.22-.7-.15-.16-.36-.25-.65-.25s-.5.08-.64.25c-.15.16-.22.4-.22.7v.13c0,.3.07.53.22.7.14.16.36.25.64.25s.5-.08.65-.25Z"/>
    <path class="cls-1" d="M12.56,19.65h1.58c.33,0,.58.08.75.25s.25.39.25.69c0,.42-.17.7-.52.83l.61,1.21h-.68l-.53-1.11h-.83v1.11h-.63v-2.98ZM14.08,21c.14,0,.24-.04.31-.11.07-.07.11-.17.11-.3s-.04-.23-.11-.3-.18-.1-.31-.1h-.9v.81h.9Z"/>
    <path class="cls-1" d="M16.42,20.2h-.92v-.54h2.47v.54h-.92v2.44h-.63v-2.44Z"/>
    <path class="cls-1" d="M19.47,21.21h1.05v.51h-1.05v-.51Z"/>
    <path class="cls-1" d="M22.23,20.35h.51l.04.3h.03c.07-.12.17-.2.29-.26s.26-.09.4-.09c.29,0,.51.1.67.3.16.2.24.5.24.9s-.08.69-.24.89c-.16.2-.37.3-.64.3-.15,0-.29-.03-.41-.08s-.21-.13-.28-.23h-.03v1.02h-.6v-3.04h.02ZM23.7,22.01c.08-.11.11-.27.11-.48v-.08c0-.21-.04-.37-.11-.48s-.2-.16-.38-.16c-.32,0-.49.21-.49.64v.07c0,.43.16.65.49.65.18,0,.3-.05.38-.16Z"/>
    <path class="cls-1" d="M24.89,20.35h.51l.05.37h.03c.05-.13.11-.23.19-.31s.18-.11.31-.11c.06,0,.1,0,.15.02s.07.02.08.02v.56h-.17c-.19,0-.33.05-.42.16s-.13.27-.13.48v1.1h-.6v-2.29Z"/>
    <path class="cls-1" d="M26.36,22.37l1.08-1.53h-1.02v-.49h1.88v.26l-1.09,1.54h1.13v.49h-1.99v-.27h.01Z"/>
    <path class="cls-1" d="M28.87,22.4c-.18-.19-.27-.5-.27-.9s.09-.71.27-.9.46-.29.82-.29c.34,0,.59.1.76.29.17.2.25.5.25.9v.14h-1.5c0,.2.05.35.12.45.08.1.2.15.38.15.12,0,.22-.03.3-.1s.11-.17.11-.3h.59c0,.29-.09.5-.28.65-.19.14-.43.22-.73.22-.37,0-.64-.1-.82-.29v-.02ZM30.09,21.24c0-.32-.13-.47-.4-.47-.15,0-.26.04-.34.12s-.12.2-.14.36h.88Z"/>
    <path class="cls-1" d="M30.96,22.37l1.08-1.53h-1.02v-.49h1.88v.26l-1.09,1.54h1.13v.49h-1.99v-.27h0Z"/>
    <path class="cls-1" d="M33.35,20.35h.51l.04.3h.03c.19-.23.42-.35.71-.35.23,0,.42.06.55.19.13.13.2.33.2.61v1.53h-.6v-1.41c0-.14-.03-.24-.1-.31-.07-.06-.17-.1-.3-.1s-.24.05-.33.14-.13.21-.13.35v1.32h-.6v-2.29l.02.02Z"/>
    <path class="cls-1" d="M36.04,22.55c-.15-.09-.22-.26-.22-.5,0-.29.12-.5.36-.62s.58-.19,1.02-.19v-.16c0-.1-.02-.18-.07-.23-.04-.05-.13-.08-.25-.08-.13,0-.23.02-.28.06-.06.04-.08.09-.08.14v.07h-.57v-.1c0-.19.08-.34.25-.46.17-.12.39-.17.68-.17.31,0,.55.06.7.19.15.13.23.31.23.55v1.01s0,.09.04.12c.03.02.07.04.11.04h.12v.42c-.09.05-.21.07-.34.07-.12,0-.22-.03-.3-.08-.08-.05-.13-.13-.16-.22h-.03c-.08.1-.18.17-.29.22s-.25.08-.42.08-.34-.05-.49-.14v-.02ZM37.08,22.08c.08-.09.12-.22.12-.38v-.07c-.52,0-.78.12-.78.35,0,.07.02.13.07.17s.12.07.22.07c.17,0,.29-.05.37-.14Z"/>
    <path class="cls-1" d="M38.55,22.4c-.18-.19-.27-.5-.27-.9s.09-.71.27-.9c.18-.2.45-.29.82-.29.3,0,.55.08.73.23.18.16.27.38.27.68h-.6c0-.14-.04-.25-.11-.32-.07-.08-.17-.11-.3-.11-.16,0-.28.06-.36.17s-.12.28-.12.51v.07c0,.23.04.4.12.51.08.11.21.17.38.17.12,0,.22-.04.3-.12s.11-.18.11-.32h.57c0,.3-.09.53-.27.68s-.42.23-.73.23c-.37,0-.64-.1-.82-.29h0Z"/>
    <path class="cls-1" d="M40.62,22.37l1.08-1.53h-1.02v-.49h1.88v.26l-1.09,1.54h1.13v.49h-1.99v-.27h0Z"/>
    <path class="cls-1" d="M43.13,22.4c-.18-.19-.27-.5-.27-.9s.09-.71.27-.9.46-.29.82-.29c.34,0,.59.1.76.29.17.2.25.5.25.9v.14h-1.5c0,.2.05.35.12.45.08.1.2.15.38.15.12,0,.22-.03.3-.1.08-.07.11-.17.11-.3h.59c0,.29-.09.5-.28.65-.19.14-.43.22-.73.22-.37,0-.64-.1-.82-.29v-.02ZM44.35,21.24c0-.32-.13-.47-.4-.47-.15,0-.26.04-.34.12s-.12.2-.14.36h.88Z"/>
    <path class="cls-1" d="M45.43,20.35h.51l.04.3h.03c.19-.23.42-.35.71-.35.23,0,.42.06.55.19.13.13.2.33.2.61v1.53h-.6v-1.41c0-.14-.03-.24-.1-.31-.07-.06-.17-.1-.3-.1s-.24.05-.33.14-.13.21-.13.35v1.32h-.6v-2.29l.02.02Z"/>
    <path class="cls-1" d="M48.08,19.49h.6v.54h-.6v-.54ZM48.08,20.35h.6v2.29h-.6v-2.29Z"/>
    <path class="cls-1" d="M49.41,22.4c-.18-.19-.27-.5-.27-.9s.09-.71.27-.9.46-.29.82-.29c.34,0,.59.1.76.29.17.2.25.5.25.9v.14h-1.5c0,.2.05.35.12.45.08.1.2.15.38.15.12,0,.22-.03.3-.1.08-.07.11-.17.11-.3h.59c0,.29-.09.5-.28.65-.19.14-.43.22-.73.22-.37,0-.64-.1-.82-.29v-.02ZM50.63,21.24c0-.32-.13-.47-.4-.47-.15,0-.26.04-.34.12s-.12.2-.14.36h.88Z"/>
    <path class="cls-1" d="M53.62,20.2h-.92v-.54h2.47v.54h-.92v2.44h-.63s0-2.44,0-2.44Z"/>
    <path class="cls-1" d="M54.96,20.35h.61l.25.94c.02.07.04.18.07.34s.05.27.06.32h.02s.03-.14.05-.27c.03-.13.06-.26.08-.38l.23-.94h.61l.25.95c.02.09.05.2.08.35.03.15.05.25.06.3h.02s.03-.14.06-.28c.03-.14.06-.27.08-.37l.23-.95h.57l-.68,2.29h-.62l-.26-1.09c-.02-.09-.04-.19-.07-.3-.02-.11-.03-.18-.04-.21h-.02s0,.1-.03.2-.04.2-.06.3l-.27,1.1h-.62l-.68-2.29h.02Z"/>
    <path class="cls-1" d="M58.78,22.4c-.19-.19-.29-.5-.29-.9s.1-.71.29-.9c.19-.19.48-.29.87-.29s.68.1.88.29c.19.19.29.5.29.9s-.1.71-.29.9-.48.29-.88.29-.68-.1-.87-.29ZM60.07,22.03c.09-.11.13-.28.13-.51v-.07c0-.23-.04-.39-.13-.51-.09-.11-.23-.17-.42-.17s-.33.06-.42.17c-.09.11-.13.28-.13.51v.07c0,.23.04.39.13.51.09.11.23.17.42.17s.33-.06.42-.17Z"/>
    <path class="cls-1" d="M61.07,23.41c-.08-.01-.14-.03-.19-.05v-.42h.23c.12,0,.19-.06.19-.19v-2.4h.6v2.46c0,.18-.05.32-.14.44s-.25.17-.46.17c-.06,0-.14,0-.22-.02h0ZM61.29,19.49h.6v.54h-.6v-.54Z"/>
    <path class="cls-1" d="M62.62,22.4c-.18-.19-.27-.5-.27-.9s.09-.71.27-.9.46-.29.82-.29c.34,0,.59.1.76.29.17.2.25.5.25.9v.14h-1.5c0,.2.05.35.12.45.08.1.2.15.38.15.12,0,.22-.03.3-.1.08-.07.11-.17.11-.3h.59c0,.29-.09.5-.28.65-.19.14-.43.22-.73.22-.37,0-.64-.1-.82-.29v-.02ZM63.84,21.24c0-.32-.13-.47-.4-.47-.15,0-.26.04-.34.12s-.12.2-.14.36h.88Z"/>
    <path class="cls-1" d="M64.88,23.28c-.11-.1-.17-.22-.17-.38,0-.2.12-.36.35-.47-.15-.08-.22-.19-.22-.34,0-.1.04-.18.11-.25.08-.07.17-.12.29-.15-.22-.14-.33-.34-.33-.62,0-.24.09-.43.26-.57.18-.14.43-.21.75-.21.18,0,.33.02.46.07.09-.05.15-.12.19-.2s.06-.14.06-.2h.58c0,.16-.04.29-.13.38-.09.1-.21.16-.36.2.15.14.22.31.22.53,0,.24-.08.43-.25.57s-.41.21-.73.21h-.35c-.05,0-.09.01-.12.03-.03.02-.05.06-.05.1,0,.03.01.06.04.09.03.02.06.04.1.04h1.04c.17,0,.31.06.42.17s.17.26.17.44c0,.14-.04.26-.11.37s-.18.19-.31.25-.27.09-.43.09h-1.08c-.16,0-.29-.05-.4-.15ZM66.35,23.02c.08,0,.14-.02.19-.06.05-.04.07-.09.07-.15s-.02-.11-.07-.15c-.05-.04-.1-.05-.17-.05h-.84c-.06,0-.12.02-.16.06s-.07.09-.07.14.02.11.07.15c.04.04.1.06.17.06h.81ZM66.24,21.35c.07-.07.11-.16.11-.28s-.04-.21-.11-.28c-.07-.07-.18-.1-.32-.1s-.24.03-.32.1c-.07.07-.11.16-.11.28s.04.21.11.28c.07.07.18.1.32.1s.24-.03.32-.1Z"/>
    <path class="cls-1" d="M67.71,22.4c-.19-.19-.29-.5-.29-.9s.1-.71.29-.9.48-.29.87-.29.68.1.88.29c.19.19.29.5.29.9s-.1.71-.29.9-.48.29-.88.29-.68-.1-.87-.29ZM69.01,22.03c.09-.11.13-.28.13-.51v-.07c0-.23-.04-.39-.13-.51-.09-.11-.23-.17-.42-.17s-.33.06-.42.17-.13.28-.13.51v.07c0,.23.04.39.13.51.09.11.23.17.42.17s.33-.06.42-.17Z"/>
    <path class="cls-1" d="M71.59,22.52c-.09-.12-.14-.26-.14-.44v-1.24h-.27v-.49h.29l.1-.64h.48v.64h.4v.49h-.4v1.18c0,.12.06.19.19.19h.21v.42s-.11.03-.18.05-.14.02-.21.02c-.21,0-.37-.06-.46-.17h-.01Z"/>
    <path class="cls-1" d="M73,22.4c-.18-.19-.27-.5-.27-.9s.09-.71.27-.9.46-.29.82-.29c.34,0,.59.1.76.29.17.2.25.5.25.9v.14h-1.5c0,.2.05.35.12.45.08.1.2.15.38.15.12,0,.22-.03.3-.1s.11-.17.11-.3h.59c0,.29-.09.5-.28.65-.19.14-.43.22-.73.22-.37,0-.64-.1-.82-.29v-.02ZM74.22,21.24c0-.32-.13-.47-.4-.47-.15,0-.26.04-.34.12-.08.08-.12.2-.14.36h.88Z"/>
    <path class="cls-1" d="M75.3,20.35h.51l.05.37h.03c.05-.13.11-.23.19-.31s.18-.11.31-.11c.06,0,.1,0,.15.02s.07.02.08.02v.56h-.17c-.19,0-.33.05-.42.16s-.13.27-.13.48v1.1h-.6v-2.29h0Z"/>
    <path class="cls-1" d="M77.11,22.4c-.18-.19-.27-.5-.27-.9s.09-.71.27-.9.46-.29.82-.29c.34,0,.59.1.76.29.17.2.25.5.25.9v.14h-1.5c0,.2.05.35.12.45.08.1.2.15.38.15.12,0,.22-.03.3-.1s.11-.17.11-.3h.59c0,.29-.09.5-.28.65-.19.14-.43.22-.73.22-.37,0-.64-.1-.82-.29v-.02ZM78.33,21.24c0-.32-.13-.47-.4-.47-.15,0-.26.04-.34.12-.08.08-.12.2-.14.36h.88Z"/>
    <path class="cls-1" d="M79.41,20.35h.51l.04.3h.03c.19-.23.42-.35.71-.35.23,0,.42.06.55.19.13.13.2.33.2.61v1.53h-.6v-1.41c0-.14-.03-.24-.1-.31-.07-.06-.17-.1-.3-.1s-.24.05-.33.14c-.09.09-.13.21-.13.35v1.32h-.6v-2.29l.02.02Z"/>
    <path class="cls-1" d="M82.25,22.5c-.13-.13-.2-.33-.2-.61v-1.53h.6v1.41c0,.14.03.24.1.31.07.06.17.1.3.1s.24-.05.33-.14c.09-.09.13-.21.13-.35v-1.32h.6v2.29h-.51l-.04-.3h-.03c-.19.23-.42.35-.71.35-.23,0-.42-.06-.55-.19l-.02-.02Z"/>
    <path class="cls-1" d="M85.64,20.35h.61l.25.94c.02.07.04.18.07.34s.05.27.06.32h.02s.03-.14.05-.27c.03-.13.06-.26.08-.38l.23-.94h.61l.25.95c.02.09.05.2.08.35s.05.25.06.3h.02s.03-.14.06-.28c.03-.14.06-.27.08-.37l.23-.95h.57l-.68,2.29h-.62l-.26-1.09c-.02-.09-.04-.19-.07-.3-.02-.11-.03-.18-.04-.21h-.02s-.01.1-.03.2-.04.2-.06.3l-.27,1.1h-.62l-.68-2.29h.02Z"/>
    <path class="cls-1" d="M90.52,20.35h.51l.04.3h.03c.07-.12.17-.2.29-.26s.26-.09.4-.09c.29,0,.51.1.67.3.16.2.24.5.24.9s-.08.69-.24.89c-.16.2-.37.3-.64.3-.15,0-.29-.03-.41-.08s-.21-.13-.28-.23h-.03v1.02h-.6v-3.04h.02ZM91.98,22.01c.08-.11.11-.27.11-.48v-.08c0-.21-.04-.37-.11-.48s-.2-.16-.38-.16c-.32,0-.49.21-.49.64v.07c0,.43.16.65.49.65.18,0,.3-.05.38-.16Z"/>
    <path class="cls-1" d="M93.17,19.49h.6v3.14h-.6v-3.14Z"/>
    <path class="cls-1" d="M94.42,22.55c-.15-.09-.22-.26-.22-.5,0-.29.12-.5.36-.62s.58-.19,1.02-.19v-.16c0-.1-.02-.18-.07-.23-.04-.05-.13-.08-.25-.08-.13,0-.23.02-.28.06-.06.04-.08.09-.08.14v.07h-.57v-.1c0-.19.08-.34.25-.46.17-.12.39-.17.68-.17.31,0,.55.06.7.19.15.13.23.31.23.55v1.01s.01.09.04.12c.03.02.07.04.11.04h.12v.42c-.09.05-.21.07-.34.07-.12,0-.22-.03-.3-.08s-.13-.13-.16-.22h-.03c-.08.1-.18.17-.29.22s-.25.08-.42.08-.34-.05-.49-.14v-.02ZM95.47,22.08c.08-.09.12-.22.12-.38v-.07c-.52,0-.78.12-.78.35,0,.07.02.13.07.17s.12.07.22.07c.17,0,.29-.05.37-.14Z"/>
    <path class="cls-1" d="M96.8,20.35h.51l.04.3h.03c.19-.23.42-.35.71-.35.23,0,.42.06.55.19.13.13.2.33.2.61v1.53h-.6v-1.41c0-.14-.03-.24-.1-.31-.07-.06-.17-.1-.3-.1s-.24.05-.33.14c-.09.09-.13.21-.13.35v1.32h-.6v-2.29l.02.02Z"/>
    <path class="cls-1" d="M99.46,19.49h.6v.54h-.6v-.54ZM99.46,20.35h.6v2.29h-.6v-2.29Z"/>
    <path class="cls-1" d="M100.78,22.4c-.18-.19-.27-.5-.27-.9s.09-.71.27-.9.46-.29.82-.29c.34,0,.59.1.76.29.17.2.25.5.25.9v.14h-1.5c0,.2.05.35.12.45.08.1.2.15.38.15.12,0,.22-.03.3-.1s.11-.17.11-.3h.59c0,.29-.09.5-.28.65-.19.14-.43.22-.73.22-.37,0-.64-.1-.82-.29v-.02ZM102,21.24c0-.32-.13-.47-.4-.47-.15,0-.26.04-.34.12-.08.08-.12.2-.14.36h.88Z"/>
    <path class="cls-1" d="M104.43,22.4c-.19-.19-.29-.5-.29-.9s.1-.71.29-.9.48-.29.87-.29.68.1.88.29c.19.19.29.5.29.9s-.1.71-.29.9-.48.29-.88.29-.68-.1-.87-.29ZM105.73,22.03c.09-.11.13-.28.13-.51v-.07c0-.23-.04-.39-.13-.51-.09-.11-.23-.17-.42-.17s-.33.06-.42.17-.13.28-.13.51v.07c0,.23.04.39.13.51.09.11.23.17.42.17s.33-.06.42-.17Z"/>
    <path class="cls-1" d="M106.91,23.28c-.11-.1-.17-.22-.17-.38,0-.2.12-.36.35-.47-.15-.08-.22-.19-.22-.34,0-.1.04-.18.11-.25.08-.07.17-.12.29-.15-.22-.14-.33-.34-.33-.62,0-.24.09-.43.26-.57.18-.14.43-.21.75-.21.18,0,.33.02.46.07.09-.05.15-.12.19-.2s.06-.14.06-.2h.58c0,.16-.04.29-.13.38-.09.1-.21.16-.36.2.15.14.22.31.22.53,0,.24-.08.43-.25.57s-.41.21-.73.21h-.35c-.05,0-.09.01-.12.03-.03.02-.05.06-.05.1,0,.03.01.06.04.09.03.02.06.04.1.04h1.04c.17,0,.31.06.42.17s.17.26.17.44c0,.14-.04.26-.11.37s-.18.19-.31.25-.27.09-.43.09h-1.08c-.16,0-.29-.05-.4-.15ZM108.39,23.02c.08,0,.14-.02.19-.06.05-.04.07-.09.07-.15s-.02-.11-.07-.15c-.05-.04-.1-.05-.17-.05h-.84c-.06,0-.12.02-.16.06s-.07.09-.07.14.02.11.07.15c.04.04.1.06.17.06h.81ZM108.27,21.35c.07-.07.11-.16.11-.28s-.04-.21-.11-.28c-.07-.07-.18-.1-.32-.1s-.24.03-.32.1c-.07.07-.11.16-.11.28s.04.21.11.28c.07.07.18.1.32.1s.24-.03.32-.1Z"/>
    <path class="cls-1" d="M109.75,22.4c-.19-.19-.29-.5-.29-.9s.1-.71.29-.9.48-.29.87-.29.68.1.88.29c.19.19.29.5.29.9s-.1.71-.29.9-.48.29-.88.29-.68-.1-.87-.29ZM111.04,22.03c.09-.11.13-.28.13-.51v-.07c0-.23-.04-.39-.13-.51-.09-.11-.23-.17-.42-.17s-.33.06-.42.17-.13.28-.13.51v.07c0,.23.04.39.13.51.09.11.23.17.42.17s.33-.06.42-.17ZM110.74,19.49h.58l-.47.57h-.46l.34-.57h.01Z"/>
    <path class="cls-1" d="M112.26,19.49h.6v3.14h-.6v-3.14Z"/>
    <path class="cls-1" d="M113.47,20.35h.51l.04.3h.03c.19-.23.42-.35.71-.35.23,0,.42.06.55.19.13.13.2.33.2.61v1.53h-.6v-1.41c0-.14-.03-.24-.1-.31-.07-.06-.17-.1-.3-.1s-.24.05-.33.14c-.09.09-.13.21-.13.35v1.32h-.6v-2.29l.02.02Z"/>
    <path class="cls-1" d="M116.27,23.42c-.06,0-.11-.02-.14-.03-.03,0-.05-.01-.06-.02v-.42h.28c.1,0,.18-.02.25-.07.06-.05.12-.13.16-.24l-.9-2.29h.62l.43,1.07c.03.08.06.18.1.32.03.14.06.23.07.28h.02s.03-.12.06-.24c.03-.12.06-.23.1-.35l.34-1.08h.6l-.77,2.17c-.07.19-.14.35-.22.48s-.17.23-.29.31-.27.12-.44.12c-.08,0-.14,0-.2-.01h0Z"/>
    <path class="cls-1" d="M118.54,20.35h.51l.04.3h.03c.17-.23.39-.35.65-.35.29,0,.49.12.6.35h.03c.17-.23.4-.35.68-.35.22,0,.39.06.52.19.13.13.19.33.19.61v1.53h-.6v-1.41c0-.27-.11-.4-.33-.4-.12,0-.21.05-.29.14s-.11.21-.11.35v1.32h-.6v-1.41c0-.27-.11-.4-.33-.4-.12,0-.21.05-.29.14s-.12.21-.12.35v1.32h-.6v-2.29h.02Z"/>
    <path class="cls-1" d="M122.4,22.04h.6v.6h-.6v-.6Z"/>
  </g>
</svg>