<?xml version="1.0" encoding="UTF-8"?>
<svg id="Layer_1" data-name="Layer 1" xmlns="http://www.w3.org/2000/svg" viewBox="0 0 288.37 263.58">
  <defs>
    <style>
      .cls-1 {
        fill: #2b3251;
      }
    </style>
  </defs>
  <path class="cls-1" d="M10,167.92c7.82-1.27,13.76,3.63,14.45,11.39,1.35,15.26-2.27,35.55.15,50,.81,4.87,4.17,8.55,8.94,9.77l220.72.18c5.32-1.25,8.88-5.14,9.62-10.59,2.03-14.92-1.33-33.97.03-49.37,1.31-14.81,20.97-15.68,23.92-1.4-1.92,31.85,11.64,79.05-32.51,85.63l-220.84.05C-11.07,258.43,2.31,210.2.53,177.91c.64-4.74,4.77-9.23,9.47-9.99Z"/>
  <path class="cls-1" d="M156.16,178.21c13.38-8.96,25.23-20.94,38.25-30.24,6.44-4.59,12.9-8.39,19.4-.84s2.5,13.61-3.41,19.09c-14.97,13.87-39.39,32.92-56.15,44.9-8.77,6.27-11.39,6.26-20.15,0-19.3-13.8-37.21-31.29-56.56-45.24-10.13-8.95-1.75-24.46,11.27-21,1.49.4,3.78,2.15,5.15,3.08,13.02,8.92,24.84,21.58,38.24,30.25V9.42C132.21,4.49,139.84-.11,144.56,0c4.43.11,11.6,4.85,11.6,9.42v168.8Z"/>
</svg>