<?xml version="1.0" encoding="UTF-8"?>
<svg id="Layer_1" data-name="Layer 1" xmlns="http://www.w3.org/2000/svg" viewBox="0 0 379.36 88.14">
  <defs>
    <style>
      .cls-1 {
        fill: #fbeec9;
        isolation: isolate;
      }

      .cls-2 {
        fill: #2b3252;
      }
    </style>
  </defs>
  <g>
    <path class="cls-2" d="M36.05,37.74h2.1l3.9,5.5c0,.1.2.3.3.5s.2.4.3.5h0v-6.5h2.1v10.2h-2.1l-3.9-5.6c-.1-.2-.2-.4-.4-.6s-.2-.3-.2-.4h0v6.5h-2.1v-10.2h0v.1Z"/>
    <path class="cls-2" d="M46.85,37.14h2v1.8h-2v-1.8ZM46.85,40.04h2v7.8h-2v-7.8Z"/>
    <path class="cls-2" d="M51.35,47.04c-.6-.7-.9-1.7-.9-3.1s.3-2.4.9-3.1,1.6-1,2.8-1,2,.3,2.6,1,.9,1.7.9,3.1v.5h-5.1c0,.7.2,1.2.4,1.5s.7.5,1.3.5.8-.1,1-.4.4-.6.4-1h2c0,1-.3,1.7-1,2.2-.6.5-1.5.7-2.5.7s-2.2-.3-2.8-1v.1ZM55.55,43.14c0-1.1-.5-1.6-1.3-1.6s-.9.1-1.2.4c-.3.3-.4.7-.5,1.2,0,0,3,0,3,0Z"/>
    <path class="cls-2" d="M63.35,40.04h1.7v1h.2c.2-.4.6-.7,1-.9s.9-.3,1.4-.3c1,0,1.8.3,2.3,1s.8,1.7.8,3.1-.3,2.4-.8,3c-.6.7-1.3,1-2.2,1s-1,0-1.4-.3-.7-.5-.9-.8h0v3.5h-2v-10.4h0l-.1.1ZM68.35,45.74c.3-.4.4-.9.4-1.6v-.3c0-.7-.1-1.3-.4-1.6s-.7-.5-1.3-.5c-1.1,0-1.7.7-1.7,2.2v.2c0,1.5.6,2.2,1.7,2.2s1-.2,1.3-.5v-.1Z"/>
    <path class="cls-2" d="M72.45,40.04h1.7l.2,1.3h0c.2-.5.4-.8.7-1.1.3-.3.6-.4,1.1-.4h.8v1.9h-.6c-.7,0-1.1.2-1.4.5s-.4.9-.4,1.6v3.8h-2v-7.8h0l-.1.2Z"/>
    <path class="cls-2" d="M77.45,47.04l3.7-5.2h-3.5v-1.7h6.4v.9l-3.7,5.3h3.8v1.7h-6.8v-.9h0l.1-.1Z"/>
    <path class="cls-2" d="M86.05,47.04c-.6-.7-.9-1.7-.9-3.1s.3-2.4.9-3.1,1.6-1,2.8-1,2,.3,2.6,1,.9,1.7.9,3.1v.5h-5.1c0,.7.2,1.2.4,1.5.3.3.7.5,1.3.5s.8-.1,1-.4.4-.6.4-1h2c0,1-.3,1.7-.9,2.2s-1.5.7-2.5.7-2.2-.3-2.8-1l-.1.1ZM90.25,43.14c0-1.1-.4-1.6-1.3-1.6s-.9.1-1.2.4c-.3.3-.4.7-.5,1.2,0,0,3,0,3,0Z"/>
    <path class="cls-2" d="M93.75,50.14c-.4-.3-.6-.8-.6-1.3s.4-1.2,1.2-1.6c-.5-.3-.8-.7-.8-1.2s.1-.6.4-.8.6-.4,1-.5c-.8-.5-1.1-1.2-1.1-2.1s.3-1.5.9-2,1.4-.7,2.6-.7,1.1,0,1.6.2c.3-.2.5-.4.7-.7.1-.3.2-.5.2-.7h2c0,.5-.2,1-.4,1.3s-.7.6-1.2.7c.5.5.7,1.1.7,1.8s-.3,1.5-.9,2-1.4.7-2.5.7h-1.2c-.2,0-.3,0-.4.1,0,0-.2.2-.2.3s0,.2.1.3c0,0,.2.1.4.1h3.6c.6,0,1.1.2,1.4.6.4.4.6.9.6,1.5s-.1.9-.4,1.3c-.3.4-.6.7-1.1.8-.4.2-.9.3-1.5.3h-3.7c-.6,0-1-.2-1.4-.5h0v.1ZM98.85,49.24c.3,0,.5,0,.6-.2.2-.1.2-.3.2-.5s0-.4-.2-.5-.3-.2-.6-.2h-2.9c-.2,0-.4,0-.6.2-.2.1-.2.3-.2.5s0,.4.2.5.3.2.6.2h2.9ZM98.45,43.54c.2-.2.4-.5.4-.9s-.1-.7-.4-.9c-.2-.2-.6-.3-1.1-.3s-.8.1-1.1.3c-.2.2-.4.5-.4.9s.1.7.4.9c.2.2.6.3,1.1.3s.8-.1,1.1-.3Z"/>
    <path class="cls-2" d="M103.15,47.64c-.5-.3-.8-.9-.8-1.7s.4-1.7,1.2-2.1,2-.6,3.5-.6v-.5c0-.3,0-.6-.2-.8s-.4-.3-.9-.3-.8,0-1,.2-.3.3-.3.5v.2h-2v-.3c0-.7.3-1.2.9-1.6s1.3-.6,2.3-.6,1.9.2,2.4.7c.5.4.8,1.1.8,1.9v3.5c0,.2,0,.3.2.4,0,0,.2.1.4.1h.4v1.4c-.3.2-.7.2-1.2.2s-.8,0-1-.3-.5-.4-.6-.8h0c-.3.3-.6.6-1,.8s-.8.3-1.4.3-1.2-.2-1.7-.5h0v-.1ZM106.75,46.04c.3-.3.4-.8.4-1.3v-.2c-1.8,0-2.7.4-2.7,1.2s0,.5.2.6.4.2.8.2c.6,0,1-.2,1.3-.5h0Z"/>
    <path class="cls-2" d="M111.25,40.04h1.7v1h.2c.2-.4.6-.7,1-.9s.9-.3,1.4-.3c1,0,1.8.3,2.3,1s.8,1.7.8,3.1-.3,2.4-.8,3c-.6.7-1.3,1-2.2,1s-1,0-1.4-.3-.7-.5-.9-.8h0v3.5h-2v-10.4h0l-.1.1ZM116.25,45.74c.3-.4.4-.9.4-1.6v-.3c0-.7-.1-1.3-.4-1.6s-.7-.5-1.3-.5c-1.1,0-1.7.7-1.7,2.2v.2c0,1.5.6,2.2,1.7,2.2s1-.2,1.3-.5v-.1Z"/>
    <path class="cls-2" d="M125.05,47.44c-.6-.5-.9-1-.9-1.8v-.2h2c0,.4.2.7.5.8s.7.2,1.1.2.8,0,1-.2.4-.3.4-.5-.1-.5-.4-.6c-.3-.1-.8-.3-1.4-.4-.6-.2-1.2-.3-1.6-.5s-.8-.4-1.1-.7c-.3-.3-.4-.8-.4-1.3s.3-1.3,1-1.8,1.5-.6,2.5-.6,1.7.2,2.3.6.9.9.9,1.5v.3h-2c0-.3-.1-.5-.4-.7-.2-.1-.6-.2-1-.2s-.7,0-1,.2-.4.3-.4.5.1.4.4.5.7.2,1.3.4c.7.2,1.2.3,1.6.5s.8.4,1.1.7.5.8.5,1.4c0,1.7-1.2,2.5-3.6,2.5s-1.9-.2-2.6-.7h0l.2.1Z"/>
    <path class="cls-2" d="M131.95,47.04l3.7-5.2h-3.5v-1.7h6.4v.9l-3.7,5.3h3.9v1.7h-6.8v-.9h0v-.1Z"/>
    <path class="cls-2" d="M140.35,47.64c-.5-.3-.8-.9-.8-1.7s.4-1.7,1.2-2.1,2-.6,3.5-.6v-.5c0-.3,0-.6-.2-.8s-.4-.3-.9-.3-.8,0-1,.2-.3.3-.3.5v.2h-2v-.3c0-.7.3-1.2.9-1.6s1.4-.6,2.3-.6,1.9.2,2.4.7.8,1.1.8,1.9v3.5c0,.2,0,.3.1.4.1,0,.2.1.4.1h.4v1.4c-.3.2-.7.2-1.2.2s-.8,0-1-.3-.5-.4-.6-.8h0c-.3.3-.6.6-1,.8s-.9.3-1.4.3-1.2-.2-1.7-.5h0l.1-.1ZM143.85,46.04c.3-.3.4-.8.4-1.3v-.2c-1.8,0-2.7.4-2.7,1.2s0,.5.2.6.4.2.8.2c.6,0,1-.2,1.3-.5h0Z"/>
    <path class="cls-2" d="M148.45,40.04h1.7v1h.2c.6-.8,1.4-1.2,2.4-1.2s1.4.2,1.9.7.7,1.1.7,2.1v5.2h-2v-4.8c0-.5-.1-.8-.3-1.1s-.6-.3-1-.3-.8.2-1.1.5-.4.7-.4,1.2v4.5h-2v-7.8h-.1Z"/>
    <path class="cls-2" d="M158.05,47.44c-.6-.5-.9-1-.9-1.8v-.2h2c0,.4.2.7.5.8s.7.2,1.1.2.8,0,1-.2.4-.3.4-.5-.1-.5-.4-.6c-.3-.1-.8-.3-1.4-.4-.6-.2-1.2-.3-1.6-.5s-.8-.4-1.1-.7-.4-.8-.4-1.3.3-1.3,1-1.8,1.5-.6,2.5-.6,1.7.2,2.3.6.9.9.9,1.5v.3h-2c0-.3-.1-.5-.4-.7-.2-.1-.6-.2-1-.2s-.7,0-1,.2-.4.3-.4.5.1.4.4.5.7.2,1.3.4c.7.2,1.2.3,1.6.5s.8.4,1.1.7.5.8.5,1.4c0,1.7-1.2,2.5-3.6,2.5s-1.9-.2-2.6-.7h0l.2.1Z"/>
    <path class="cls-2" d="M166.25,50.54h-.7v-1.4h1c.4,0,.6,0,.9-.2s.4-.5.5-.8l-3.1-7.8h2.1l1.5,3.7c.1.3.2.6.3,1.1s.2.8.2.9h0c0-.2.1-.4.2-.8.1-.4.2-.8.3-1.2l1.2-3.7h2.1l-2.6,7.4c-.2.7-.5,1.2-.7,1.6-.3.4-.6.8-1,1.1s-.9.4-1.5.4h-.7v-.3Z"/>
    <path class="cls-2" d="M178.15,40.04h1.7v1h.2c.6-.8,1.4-1.2,2.4-1.2s1.4.2,1.9.7.7,1.1.7,2.1v5.2h-2v-4.8c0-.5-.1-.8-.3-1.1s-.6-.3-1-.3-.8.2-1.1.5-.4.7-.4,1.2v4.5h-2v-7.8h-.1Z"/>
    <path class="cls-2" d="M187.35,47.64c-.5-.3-.8-.9-.8-1.7s.4-1.7,1.2-2.1c.8-.4,2-.6,3.5-.6v-.5c0-.3,0-.6-.2-.8s-.4-.3-.9-.3-.8,0-1,.2-.3.3-.3.5v.2h-2v-.3c0-.7.3-1.2.9-1.6s1.4-.6,2.3-.6,1.9.2,2.4.7.8,1.1.8,1.9v3.5c0,.2,0,.3.1.4.1,0,.2.1.4.1h.4v1.4c-.3.2-.7.2-1.2.2s-.8,0-1-.3-.5-.4-.6-.8h0c-.3.3-.6.6-1,.8s-.9.3-1.4.3-1.2-.2-1.7-.5h0l.1-.1ZM190.95,46.04c.3-.3.4-.8.4-1.3v-.2c-1.8,0-2.7.4-2.7,1.2s0,.5.2.6.4.2.8.2c.6,0,1-.2,1.3-.5h0Z"/>
    <path class="cls-2" d="M198.95,47.04l3.7-5.2h-3.5v-1.7h6.4v.9l-3.7,5.3h3.9v1.7h-6.8v-.9h0v-.1Z"/>
    <path class="cls-2" d="M207.05,40.04h1.7v1h.2c.6-.8,1.3-1.2,2.2-1.2s1.7.4,2.1,1.2h.1c.6-.8,1.4-1.2,2.3-1.2s1.3.2,1.8.7c.4.4.7,1.1.7,2.1v5.2h-2v-4.8c0-.9-.4-1.4-1.1-1.4s-.7.2-1,.5-.4.7-.4,1.2v4.5h-2v-4.8c0-.9-.4-1.4-1.1-1.4s-.7.2-1,.5-.4.7-.4,1.2v4.5h-2v-7.8h-.1Z"/>
    <path class="cls-2" d="M220.25,37.14h2v1.8h-2v-1.8ZM220.25,40.04h2v7.8h-2v-7.8Z"/>
    <path class="cls-2" d="M224.55,47.64c-.5-.3-.8-.9-.8-1.7s.4-1.7,1.2-2.1c.8-.4,2-.6,3.5-.6v-.5c0-.3,0-.6-.2-.8s-.4-.3-.9-.3-.8,0-1,.2-.3.3-.3.5v.2h-2v-.3c0-.7.3-1.2.9-1.6s1.4-.6,2.3-.6,1.9.2,2.4.7.8,1.1.8,1.9v3.5c0,.2,0,.3.1.4.1,0,.2.1.4.1h.4v1.4c-.3.2-.7.2-1.2.2s-.8,0-1-.3-.5-.4-.6-.8h0c-.3.3-.6.6-1,.8s-.9.3-1.4.3-1.2-.2-1.7-.5h0l.1-.1ZM228.15,46.04c.3-.3.4-.8.4-1.3v-.2c-1.8,0-2.7.4-2.7,1.2s0,.5.2.6.4.2.8.2c.6,0,1-.2,1.3-.5h0Z"/>
    <path class="cls-2" d="M232.65,40.04h1.7v1h.2c.6-.8,1.4-1.2,2.4-1.2s1.4.2,1.9.7.7,1.1.7,2.1v5.2h-2v-4.8c0-.5-.1-.8-.3-1.1s-.6-.3-1-.3-.8.2-1.1.5-.4.7-.4,1.2v4.5h-2v-7.8h-.1Z"/>
    <path class="cls-2" d="M246.25,50.24c-.3-.2-.5-.6-.5-1.1s0-.8.2-1.2c-.3,0-.7.2-1.1.2-1.2,0-2.2-.3-2.8-1s-.9-1.7-.9-3.1.3-2.4.9-3.1,1.6-1,2.8-1,2,.3,2.6,1,.9,1.7.9,3.1v.5h-5.1c0,.7.2,1.2.4,1.5s.7.5,1.3.5.8-.1,1-.4.4-.6.4-1h2c0,.8-.3,1.5-.8,2.1-.1.1-.2.3-.3.5,0,.2-.1.5-.1.7,0,.8.3,1.2.9,1.2h.2v.8c-.4.1-.7.2-1.1.2-.5,0-.9-.1-1.2-.3h0l.3-.1ZM246.35,43.14c0-1.1-.4-1.6-1.4-1.6s-.9.1-1.2.4c-.3.3-.4.7-.5,1.2h3.1Z"/>
    <path class="cls-2" d="M254.15,40.04h1.7v1h.2c.2-.4.6-.7,1-.9s.9-.3,1.4-.3c1,0,1.8.3,2.3,1s.8,1.7.8,3.1-.3,2.4-.8,3c-.5.7-1.3,1-2.2,1s-1,0-1.4-.3c-.4-.2-.7-.5-.9-.8h0v3.5h-2v-10.4h0l-.1.1ZM259.15,45.74c.3-.4.4-.9.4-1.6v-.3c0-.7-.1-1.3-.4-1.6s-.7-.5-1.3-.5c-1.1,0-1.7.7-1.7,2.2v.2c0,1.5.5,2.2,1.7,2.2s1-.2,1.3-.5v-.1Z"/>
    <path class="cls-2" d="M263.25,40.04h1.7l.2,1.3h.1c.2-.5.4-.8.6-1.1.3-.3.6-.4,1.1-.4h.8v1.9h-.6c-.7,0-1.1.2-1.4.5s-.5.9-.5,1.6v3.8h-2v-7.8h0v.2Z"/>
    <path class="cls-2" d="M268.25,47.04l3.7-5.2h-3.5v-1.7h6.4v.9l-3.7,5.3h3.9v1.7h-6.8v-.9h0v-.1Z"/>
    <path class="cls-2" d="M276.85,47.04c-.6-.7-.9-1.7-.9-3.1s.3-2.4.9-3.1,1.6-1,2.8-1,2,.3,2.6,1,.9,1.7.9,3.1v.5h-5.1c0,.7.2,1.2.4,1.5s.7.5,1.3.5.8-.1,1-.4.4-.6.4-1h2c0,1-.3,1.7-1,2.2-.6.5-1.5.7-2.5.7s-2.2-.3-2.8-1v.1ZM281.05,43.14c0-1.1-.5-1.6-1.4-1.6s-.9.1-1.2.4c-.3.3-.4.7-.5,1.2h3.1Z"/>
    <path class="cls-2" d="M283.95,47.04l3.7-5.2h-3.5v-1.7h6.4v.9l-3.7,5.3h3.9v1.7h-6.8v-.9h0v-.1Z"/>
    <path class="cls-2" d="M292.15,40.04h1.7v1h.2c.6-.8,1.5-1.2,2.4-1.2s1.4.2,1.9.7.7,1.1.7,2.1v5.2h-2v-4.8c0-.5-.1-.8-.3-1.1s-.6-.3-1-.3-.8.2-1.1.5-.5.7-.5,1.2v4.5h-2v-7.8h0Z"/>
    <path class="cls-2" d="M301.35,47.64c-.5-.3-.8-.9-.8-1.7s.4-1.7,1.2-2.1c.8-.4,2-.6,3.5-.6v-.5c0-.3,0-.6-.2-.8s-.4-.3-.9-.3-.8,0-1,.2-.3.3-.3.5v.2h-2v-.3c0-.7.3-1.2.9-1.6s1.4-.6,2.3-.6,1.9.2,2.4.7.8,1.1.8,1.9v3.5c0,.2,0,.3.1.4.1,0,.2.1.4.1h.4v1.4c-.3.2-.7.2-1.2.2s-.8,0-1-.3-.5-.4-.6-.8h0c-.3.3-.6.6-1,.8s-.9.3-1.5.3-1.2-.2-1.7-.5h0l.2-.1ZM304.95,46.04c.3-.3.4-.8.4-1.3v-.2c-1.8,0-2.7.4-2.7,1.2s0,.5.2.6.4.2.8.2c.6,0,1-.2,1.3-.5h0Z"/>
    <path class="cls-2" d="M309.95,47.04c-.6-.7-.9-1.7-.9-3.1s.3-2.4.9-3.1,1.5-1,2.8-1,1.9.3,2.5.8.9,1.3.9,2.3h-2c0-.5-.1-.8-.4-1.1s-.6-.4-1-.4-1,.2-1.2.6c-.3.4-.4,1-.4,1.8v.2c0,.8.1,1.3.4,1.8.3.4.7.6,1.3.6s.8-.1,1-.4.4-.6.4-1.1h2c0,1-.3,1.8-.9,2.3s-1.5.8-2.5.8-2.2-.3-2.8-1h-.1Z"/>
    <path class="cls-2" d="M317.05,47.04l3.7-5.2h-3.5v-1.7h6.4v.9l-3.7,5.3h3.9v1.7h-6.8v-.9h0v-.1Z"/>
    <path class="cls-2" d="M325.55,47.04c-.6-.7-.9-1.7-.9-3.1s.3-2.4.9-3.1,1.6-1,2.8-1,2,.3,2.6,1,.9,1.7.9,3.1v.5h-5.1c0,.7.2,1.2.4,1.5s.7.5,1.3.5.8-.1,1-.4.4-.6.4-1h2c0,1-.3,1.7-1,2.2-.6.5-1.5.7-2.5.7s-2.2-.3-2.8-1v.1ZM329.75,43.14c0-1.1-.5-1.6-1.4-1.6s-.9.1-1.2.4c-.3.3-.4.7-.5,1.2h3.1Z"/>
    <path class="cls-2" d="M333.45,40.04h1.7v1h.2c.6-.8,1.5-1.2,2.4-1.2s1.4.2,1.9.7.7,1.1.7,2.1v5.2h-2v-4.8c0-.5-.1-.8-.3-1.1s-.6-.3-1-.3-.8.2-1.1.5-.5.7-.5,1.2v4.5h-2v-7.8h0Z"/>
    <path class="cls-2" d="M342.55,37.14h2v1.8h-2v-1.8ZM342.55,40.04h2v7.8h-2v-7.8Z"/>
    <path class="cls-2" d="M346.85,47.64c-.5-.3-.8-.9-.8-1.7s.4-1.7,1.2-2.1c.8-.4,2-.6,3.5-.6v-.5c0-.3,0-.6-.2-.8s-.4-.3-.9-.3-.8,0-1,.2-.3.3-.3.5v.2h-2v-.3c0-.7.3-1.2.9-1.6s1.4-.6,2.3-.6,1.9.2,2.4.7.8,1.1.8,1.9v3.5c0,.2,0,.3.1.4.1,0,.2.1.4.1h.4v1.4c-.3.2-.7.2-1.2.2s-.8,0-1-.3-.5-.4-.6-.8h0c-.3.3-.6.6-1,.8s-.9.3-1.5.3-1.2-.2-1.7-.5h0l.2-.1ZM350.35,46.04c.3-.3.4-.8.4-1.3v-.2c-1.8,0-2.7.4-2.7,1.2s0,.5.2.6.4.2.8.2c.6,0,1-.2,1.3-.5h0Z"/>
    <path class="cls-2" d="M38.55,57.34h-3.2v-1.9h8.5v1.9h-3.2v8.3h-2.2v-8.3h.1Z"/>
    <path class="cls-2" d="M43.05,57.94h2.1l.8,3.2c0,.2.1.6.2,1.2s.2.9.2,1.1h0c0-.2,0-.5.2-.9,0-.5.2-.9.3-1.3l.8-3.2h2.1l.8,3.2c0,.3.2.7.3,1.2s.2.8.2,1h0c0-.2,0-.5.2-1,0-.5.2-.9.3-1.3l.8-3.2h1.9l-2.3,7.8h-2.1l-.9-3.7c0-.3-.2-.6-.2-1s-.1-.6-.1-.7h0v.7c0,.4-.1.7-.2,1l-.9,3.8h-2.1l-2.3-7.8h0l-.1-.1Z"/>
    <path class="cls-2" d="M56.15,64.94c-.7-.7-1-1.7-1-3.1s.3-2.4,1-3.1,1.7-1,3-1,2.3.3,3,1,1,1.7,1,3.1-.3,2.4-1,3.1-1.7,1-3,1-2.3-.3-3-1ZM60.55,63.64c.3-.4.5-1,.5-1.7v-.2c0-.8-.2-1.3-.5-1.7s-.8-.6-1.4-.6-1.1.2-1.4.6-.4,1-.4,1.7v.2c0,.8.2,1.3.4,1.7.3.4.8.6,1.4.6s1.1-.2,1.4-.6Z"/>
    <path class="cls-2" d="M63.95,68.34c-.3,0-.5,0-.7-.2v-1.4h.8c.4,0,.6-.2.6-.6v-8.2h2v8.4c0,.6-.2,1.1-.5,1.5s-.8.6-1.6.6-.5,0-.7,0h0l.1-.1ZM64.75,55.04h2v1.8h-2v-1.8Z"/>
    <path class="cls-2" d="M69.25,64.94c-.6-.7-.9-1.7-.9-3.1s.3-2.4.9-3.1,1.6-1,2.8-1,2,.3,2.6,1,.9,1.7.9,3.1v.5h-5.1c0,.7.2,1.2.4,1.5.3.3.7.5,1.3.5s.8-.1,1-.4c.3-.2.4-.6.4-1h2c0,1-.3,1.7-.9,2.2s-1.5.7-2.5.7-2.2-.3-2.8-1l-.1.1ZM73.45,60.94c0-1.1-.4-1.6-1.3-1.6s-.9.1-1.2.4c-.3.3-.4.7-.5,1.2,0,0,3,0,3,0Z"/>
    <path class="cls-2" d="M76.95,67.94c-.4-.3-.6-.8-.6-1.3s.4-1.2,1.2-1.6c-.5-.3-.8-.7-.8-1.2s.1-.6.4-.8.6-.4,1-.5c-.8-.5-1.1-1.2-1.1-2.1s.3-1.5.9-2,1.4-.7,2.6-.7,1.1,0,1.6.2c.3-.2.5-.4.7-.7.1-.3.2-.5.2-.7h2c0,.5-.2,1-.4,1.3s-.7.6-1.2.7c.5.5.7,1.1.7,1.8s-.3,1.5-.9,2-1.4.7-2.5.7h-1.2c-.2,0-.3,0-.4.1,0,0-.2.2-.2.3s0,.2.1.3c0,0,.2.1.4.1h3.6c.6,0,1.1.2,1.4.6.4.4.6.9.6,1.5s-.1.9-.4,1.3-.6.7-1.1.8-.9.3-1.5.3h-3.7c-.6,0-1-.2-1.4-.5h0v.1ZM82.05,67.04c.3,0,.5,0,.6-.2.2-.1.2-.3.2-.5s0-.4-.2-.5-.3-.2-.6-.2h-2.9c-.2,0-.4,0-.6.2-.2.1-.2.3-.2.5s0,.4.2.5.3.2.6.2h2.9ZM81.65,61.34c.2-.2.4-.5.4-.9s-.1-.7-.4-.9c-.2-.2-.6-.3-1.1-.3s-.8.1-1.1.3c-.2.2-.4.5-.4.9s.1.7.4.9c.2.2.6.3,1.1.3s.8-.1,1.1-.3Z"/>
    <path class="cls-2" d="M86.75,64.94c-.7-.7-1-1.7-1-3.1s.3-2.4,1-3.1,1.7-1,3-1,2.3.3,3,1,1,1.7,1,3.1-.3,2.4-1,3.1-1.7,1-3,1-2.3-.3-3-1ZM91.15,63.64c.3-.4.4-1,.4-1.7v-.2c0-.8-.2-1.3-.4-1.7s-.8-.6-1.4-.6-1.1.2-1.4.6-.4,1-.4,1.7v.2c0,.8.2,1.3.4,1.7s.8.6,1.4.6,1.1-.2,1.4-.6Z"/>
    <path class="cls-2" d="M99.95,65.34c-.3-.4-.5-.9-.5-1.5v-4.2h-.9v-1.7h1l.3-2.2h1.7v2.2h1.3v1.7h-1.3v4c0,.4.2.6.6.6h.7v1.4c-.2,0-.4.1-.6.2s-.5,0-.7,0c-.7,0-1.3-.2-1.6-.6h0v.1Z"/>
    <path class="cls-2" d="M104.75,64.94c-.6-.7-.9-1.7-.9-3.1s.3-2.4.9-3.1,1.6-1,2.8-1,2,.3,2.6,1,.9,1.7.9,3.1v.5h-5.1c0,.7.2,1.2.4,1.5.3.3.7.5,1.3.5s.8-.1,1-.4c.3-.2.4-.6.4-1h2c0,1-.3,1.7-.9,2.2s-1.5.7-2.5.7-2.2-.3-2.8-1l-.1.1ZM108.95,60.94c0-1.1-.4-1.6-1.3-1.6s-.9.1-1.2.4c-.3.3-.4.7-.5,1.2,0,0,3,0,3,0Z"/>
    <path class="cls-2" d="M112.65,57.94h1.7l.2,1.3h0c.2-.5.4-.8.7-1.1.3-.3.6-.4,1.1-.4h.8v1.9h-.6c-.7,0-1.1.2-1.4.5s-.4.9-.4,1.6v3.8h-2v-7.8h0l-.1.2Z"/>
    <path class="cls-2" d="M118.85,64.94c-.6-.7-.9-1.7-.9-3.1s.3-2.4.9-3.1,1.6-1,2.8-1,2,.3,2.6,1,.9,1.7.9,3.1v.5h-5.1c0,.7.2,1.2.4,1.5.3.3.7.5,1.3.5s.8-.1,1-.4c.3-.2.4-.6.4-1h2c0,1-.3,1.7-.9,2.2s-1.5.7-2.5.7-2.2-.3-2.8-1l-.1.1ZM122.95,60.94c0-1.1-.4-1.6-1.3-1.6s-.9.1-1.2.4c-.3.3-.4.7-.5,1.2,0,0,3,0,3,0Z"/>
    <path class="cls-2" d="M126.65,57.94h1.7v1h.2c.6-.8,1.4-1.2,2.4-1.2s1.4.2,1.9.7c.5.4.7,1.1.7,2.1v5.2h-2v-4.8c0-.5-.1-.8-.3-1.1s-.6-.3-1-.3-.8.2-1.1.5-.4.7-.4,1.2v4.5h-2v-7.8h-.1Z"/>
    <path class="cls-2" d="M136.45,65.24c-.5-.4-.7-1.1-.7-2.1v-5.2h2v4.8c0,.5.1.8.3,1.1.2.3.6.3,1,.3s.8-.2,1.1-.5.4-.7.4-1.2v-4.5h2v7.8h-1.7v-1h-.2c-.6.8-1.4,1.2-2.4,1.2s-1.4-.2-1.9-.7h.1Z"/>
    <path class="cls-2" d="M147.95,57.94h2.1l.9,3.2c0,.2.1.6.2,1.2s.2.9.2,1.1h0c0-.2,0-.5.2-.9,0-.5.2-.9.3-1.3l.8-3.2h2.1l.9,3.2c0,.3.2.7.3,1.2s.2.8.2,1h0c0-.2,0-.5.2-1,.1-.5.2-.9.3-1.3l.8-3.2h1.9l-2.3,7.8h-2.1l-.9-3.7c0-.3-.1-.6-.2-1s-.1-.6-.1-.7h0c0,.1,0,.3-.1.7,0,.4-.1.7-.2,1l-.9,3.8h-2.1l-2.3-7.8h0l-.2-.1Z"/>
    <path class="cls-2" d="M164.65,55.54h4.9c1.1,0,2,.3,2.6.9.6.6.9,1.4.9,2.5s-.3,1.9-.9,2.5c-.6.6-1.5.9-2.7.9h-2.6v3.5h-2.2v-10.2h0v-.1ZM169.25,60.44c.5,0,.8-.1,1.1-.4s.4-.6.4-1.1-.1-.8-.4-1.1c-.2-.3-.6-.4-1.1-.4h-2.5v3h2.5Z"/>
    <path class="cls-2" d="M174.55,55.04h2v10.7h-2s0-10.8,0-10.7Z"/>
    <path class="cls-2" d="M178.85,65.44c-.5-.3-.8-.9-.8-1.7s.4-1.7,1.2-2.1c.8-.4,2-.6,3.5-.6v-.5c0-.3,0-.6-.2-.8s-.4-.3-.9-.3-.8,0-1,.2-.3.3-.3.5v.2h-2v-.3c0-.7.3-1.2.9-1.6s1.4-.6,2.3-.6,1.9.2,2.4.7.8,1.1.8,1.9v3.5c0,.2,0,.3.1.4.1,0,.2.1.4.1h.4v1.4c-.3.2-.7.2-1.2.2s-.8,0-1-.3-.5-.4-.6-.8h0c-.3.3-.6.6-1,.8-.4.2-.9.3-1.4.3s-1.2-.2-1.7-.5h0l.1-.1ZM182.45,63.84c.3-.3.4-.8.4-1.3v-.2c-1.8,0-2.7.4-2.7,1.2s0,.5.2.6.4.2.8.2c.6,0,1-.2,1.3-.5h0Z"/>
    <path class="cls-2" d="M186.95,57.94h1.7v1h.2c.6-.8,1.4-1.2,2.4-1.2s1.4.2,1.9.7.7,1.1.7,2.1v5.2h-2v-4.8c0-.5-.1-.8-.3-1.1s-.6-.3-1-.3-.8.2-1.1.5-.4.7-.4,1.2v4.5h-2v-7.8h-.1Z"/>
    <path class="cls-2" d="M196.05,55.04h2v1.8h-2v-1.8ZM196.05,57.94h2v7.8h-2v-7.8Z"/>
    <path class="cls-2" d="M200.65,64.94c-.6-.7-.9-1.7-.9-3.1s.3-2.4.9-3.1,1.6-1,2.8-1,2,.3,2.6,1,.9,1.7.9,3.1v.5h-5.1c0,.7.2,1.2.4,1.5.3.3.7.5,1.3.5s.8-.1,1-.4c.3-.2.4-.6.4-1h2c0,1-.3,1.7-.9,2.2-.6.5-1.5.7-2.5.7s-2.2-.3-2.8-1l-.1.1ZM204.75,60.94c0-1.1-.4-1.6-1.4-1.6s-.9.1-1.2.4c-.3.3-.4.7-.5,1.2h3.1Z"/>
    <path class="cls-2" d="M213.45,64.64c-.9-.9-1.4-2.2-1.4-4s.4-3.1,1.4-4c.9-.9,2.2-1.3,3.8-1.3s2.9.4,3.8,1.3c.9.9,1.4,2.2,1.4,4s-.4,3.1-1.4,4c-.9.9-2.2,1.3-3.8,1.3s-2.9-.4-3.8-1.3ZM219.55,63.24c.5-.6.8-1.3.8-2.4v-.5c0-1-.2-1.8-.8-2.4-.5-.6-1.2-.8-2.2-.8s-1.7.3-2.2.8-.7,1.3-.7,2.4v.5c0,1,.2,1.8.7,2.4.5.6,1.2.8,2.2.8s1.7-.3,2.2-.8Z"/>
    <path class="cls-2" d="M224.05,67.94c-.4-.3-.6-.8-.6-1.3s.4-1.2,1.2-1.6c-.5-.3-.8-.7-.8-1.2s.1-.6.4-.8c.3-.2.6-.4,1-.5-.8-.5-1.1-1.2-1.1-2.1s.3-1.5.9-2c.6-.5,1.4-.7,2.6-.7s1.1,0,1.6.2c.3-.2.5-.4.6-.7s.2-.5.2-.7h2c0,.5-.1,1-.4,1.3s-.7.6-1.2.7c.5.5.7,1.1.7,1.8s-.3,1.5-.9,2-1.4.7-2.5.7h-1.2c-.2,0-.3,0-.4.1-.1,0-.2.2-.2.3s0,.2.1.3c0,0,.2.1.4.1h3.6c.6,0,1.1.2,1.4.6.4.4.6.9.6,1.5s-.1.9-.4,1.3c-.3.4-.6.7-1.1.8s-.9.3-1.5.3h-3.7c-.5,0-1-.2-1.4-.5h0l.1.1ZM229.05,67.04c.3,0,.5,0,.6-.2.2-.1.2-.3.2-.5s0-.4-.2-.5-.3-.2-.6-.2h-2.9c-.2,0-.4,0-.6.2-.1.1-.2.3-.2.5s0,.4.2.5c.1.1.3.2.6.2h2.9ZM228.65,61.34c.2-.2.4-.5.4-.9s-.1-.7-.4-.9c-.2-.2-.6-.3-1.1-.3s-.8.1-1.1.3c-.2.2-.4.5-.4.9s.1.7.4.9c.2.2.6.3,1.1.3s.8-.1,1.1-.3Z"/>
    <path class="cls-2" d="M233.75,64.94c-.6-.7-1-1.7-1-3.1s.3-2.4,1-3.1,1.6-1,3-1,2.3.3,3,1,1,1.7,1,3.1-.3,2.4-1,3.1-1.7,1-3,1-2.3-.3-3-1ZM238.15,63.64c.3-.4.4-1,.4-1.7v-.2c0-.8-.1-1.3-.4-1.7s-.8-.6-1.4-.6-1.1.2-1.4.6-.4,1-.4,1.7v.2c0,.8.1,1.3.4,1.7.3.4.8.6,1.4.6s1.1-.2,1.4-.6ZM237.15,55.04h2l-1.6,2h-1.6l1.2-2h0Z"/>
    <path class="cls-2" d="M242.35,55.04h2v10.7h-2s0-10.8,0-10.7Z"/>
    <path class="cls-2" d="M246.45,57.94h1.7v1h.2c.6-.8,1.4-1.2,2.4-1.2s1.4.2,1.9.7.7,1.1.7,2.1v5.2h-2v-4.8c0-.5-.1-.8-.3-1.1s-.6-.3-1-.3-.8.2-1.1.5-.4.7-.4,1.2v4.5h-2v-7.8h-.1Z"/>
    <path class="cls-2" d="M256.05,68.34h-.7v-1.4h1c.4,0,.6,0,.9-.2s.4-.4.5-.8l-3.1-7.8h2.1l1.5,3.7c.1.3.2.6.3,1.1s.2.8.2.9h0c0-.2.1-.4.2-.8.1-.4.2-.8.3-1.2l1.2-3.7h2.1l-2.6,7.4c-.2.7-.5,1.2-.7,1.6-.3.4-.6.8-1,1.1s-.9.4-1.5.4h-.7v-.3Z"/>
    <path class="cls-2" d="M263.75,57.94h1.7v1h.2c.6-.8,1.3-1.2,2.2-1.2s1.7.4,2,1.2h.1c.6-.8,1.4-1.2,2.3-1.2s1.3.2,1.8.7c.4.4.7,1.1.7,2.1v5.2h-2v-4.8c0-.9-.4-1.4-1.1-1.4s-.7.2-1,.5-.4.7-.4,1.2v4.5h-2v-4.8c0-.9-.4-1.4-1.1-1.4s-.7.2-1,.5-.4.7-.4,1.2v4.5h-2v-7.8h0Z"/>
    <path class="cls-2" d="M277.25,55.54h2.3l-.5,7.3h-1.2l-.5-7.3h-.1ZM277.45,63.74h2v2h-2s0-2,0-2Z"/>
  </g>
  <path class="cls-1" d="M292.15,5.34c-.6.7-2.7-.4-3.6-.6-12.7-1.6-26.1-.9-38.9-.7-52.8.8-107.9,4.7-159.6,15.1-20.9,4.2-64.6,14.3-80.3,27.5-8.3,7-2.1,11.1,5.2,14.6,15.1,7.3,36.6,10.2,53.4,12.6,59,8.6,123.5,10.1,183,7.1,29.7-1.5,79.4-5.5,107.4-18,2.4-1.1,4.6-2.5,6.6-4.3,8.2-7.2,12.9-15,.3-21.1-10-4.8-24.2-6.3-35.2-7.5-45.5-5.2-91.7-4.8-137.2-9.4-1-.4-1-1-.5-1.9h38c.9-.1,1.8.3,2.7.3,32.9.7,68.1,1.5,100.8,5.4,10.8,1.3,37.1,4.8,43,14.4,10.5,17.1-21,32.5-33.1,35.8-33.5,9-71.6,11.5-106.3,12.7-56,2-113.4.5-168.9-7.4-17.8-2.5-43.2-6.4-58.8-15C-22.55,46.84,33.05,29.04,46.65,24.94,97.95,9.34,157.15,3.54,210.85,1.34c22.9-.9,49.3-2.5,71.9,0,1.7.2,12,.9,9.4,3.9h0v.1Z"/>
</svg>